Coordinates
version=1
nRows=26
nColumns=24
inDegrees=yes

Units are S.I. units (second, meters, Newtons, ...)
If the header above contains a line with 'inDegrees', this indicates whether rotational values are in degrees (yes) or radians (no).

endheader
time	pelvis_tilt	pelvis_list	pelvis_rotation	pelvis_tx	pelvis_ty	pelvis_tz	hip_flexion_r	hip_adduction_r	hip_rotation_r	knee_angle_r	ankle_angle_r	subtalar_angle_r	mtp_angle_r	hip_flexion_l	hip_adduction_l	hip_rotation_l	knee_angle_l	ankle_angle_l	subtalar_angle_l	mtp_angle_l	lumbar_extension	lumbar_bending	lumbar_rotation
      0.00000000	     15.45127529	      3.12682227	   -179.65233100	      0.21462731	      0.84426337	     -1.21433930	     19.74635460	     -8.86092218	    -34.36825817	     -9.08814780	     -0.48255624	     13.78751069	      0.00000000	     21.05941479	    -16.88843426	    -32.32604328	    -10.42320224	      0.09913958	     16.48675127	      0.00000000	      5.53933833	      2.06063305	     -0.90611609
      0.00500000	     15.45399553	      3.12474721	   -179.65627323	      0.21458858	      0.84426156	     -1.21432059	     19.74800022	     -8.86326086	    -34.37187367	     -9.08689063	     -0.48196511	     13.78551371	      0.00000000	     21.05778064	    -16.88578240	    -32.32527308	    -10.42413141	      0.09901751	     16.48811337	      0.00000000	      5.53947658	      2.06371616	     -0.90501847
      0.01000000	     15.46350648	      3.13489744	   -179.67300385	      0.21452523	      0.84431022	     -1.21424734	     19.78353005	     -8.88331187	    -34.52721029	     -9.16958551	     -0.67580351	     13.69182744	      0.00000000	     21.05046753	    -16.89143668	    -32.34679854	    -10.40262151	      0.07764520	     16.48014813	      0.00000000	      5.55138936	      2.08625760	     -0.86947428
      0.01500000	     15.46990038	      3.14547912	   -179.67747390	      0.21447586	      0.84431881	     -1.21420761	     19.79072232	     -8.87427699	    -34.50248335	     -9.17722057	     -0.67910002	     13.70277348	      0.00000000	     21.04826859	    -16.89915012	    -32.34115273	    -10.38498442	      0.06848068	     16.48176459	      0.00000000	      5.55266479	      2.10238861	     -0.88158120
      0.02000000	     15.47076364	      3.14450295	   -179.67709185	      0.21442320	      0.84429464	     -1.21419903	     19.78156531	     -8.87153747	    -34.50261086	     -9.16149907	     -0.66506112	     13.70179585	      0.00000000	     21.05026193	    -16.90047114	    -32.33873167	    -10.39693809	      0.07048218	     16.47990987	      0.00000000	      5.55384818	      2.09629148	     -0.87695751
      0.02500000	     15.47176545	      3.14451527	   -179.66966450	      0.21441037	      0.84426140	     -1.21425923	     19.77824003	     -8.86731775	    -34.49974263	     -9.15900884	     -0.66511200	     13.70370967	      0.00000000	     21.05209220	    -16.90358168	    -32.33589562	    -10.39979104	      0.07352732	     16.48096105	      0.00000000	      5.55218659	      2.08163356	     -0.87806620
      0.03000000	     15.42763791	      3.12323931	   -179.58336112	      0.21458423	      0.84429505	     -1.21443641	     19.71281579	     -8.88426999	    -34.51101457	     -9.12484435	     -0.65658844	     13.66080418	      0.00000000	     21.07288771	    -16.88501292	    -32.25778182	    -10.46330379	      0.09458897	     16.52283130	      0.00000000	      5.46933206	      2.00466290	     -0.94884388
      0.03500000	     15.43231094	      3.13252711	   -179.59645921	      0.21450428	      0.84428418	     -1.21438729	     19.71498444	     -8.87637585	    -34.51415542	     -9.12845020	     -0.66204036	     13.65418895	      0.00000000	     21.05753145	    -16.88838943	    -32.26958813	    -10.44296008	      0.09861442	     16.51486522	      0.00000000	      5.48173416	      2.02479498	     -0.92659998
      0.04000000	     15.45610948	      3.14212752	   -179.66752580	      0.21427718	      0.84425614	     -1.21419721	     19.74449832	     -8.86898469	    -34.49633114	     -9.14424823	     -0.65893975	     13.67213108	      0.00000000	     21.03046485	    -16.89694178	    -32.31974984	    -10.42176606	      0.11657453	     16.47925214	      0.00000000	      5.53639316	      2.08695169	     -0.84651264
      0.04500000	     15.45994897	      3.14233063	   -179.68848781	      0.21420607	      0.84424343	     -1.21415342	     19.75357940	     -8.87064665	    -34.51387966	     -9.15909783	     -0.64366692	     13.66363879	      0.00000000	     21.01394957	    -16.89616563	    -32.33475175	    -10.40740433	      0.10004310	     16.46491427	      0.00000000	      5.54764724	      2.09993772	     -0.81775217
      0.05000000	     15.46185750	      3.13342462	   -179.68997030	      0.21419088	      0.84422357	     -1.21415037	     19.75232544	     -8.87725108	    -34.50835209	     -9.15405474	     -0.65040019	     13.67381362	      0.00000000	     21.01983994	    -16.89118344	    -32.32582216	    -10.42867539	      0.09670983	     16.46248893	      0.00000000	      5.54403072	      2.08841009	     -0.81013351
      0.05500000	     15.46440743	      3.13462003	   -179.68147199	      0.21417729	      0.84420939	     -1.21420026	     19.74826158	     -8.87654027	    -34.50624434	     -9.14905639	     -0.65137978	     13.67640649	      0.00000000	     21.02451818	    -16.89382718	    -32.32673650	    -10.42862780	      0.10135022	     16.46043775	      0.00000000	      5.54296371	      2.07478666	     -0.81014460
      0.06000000	     15.45994940	      3.12621874	   -179.66238008	      0.21411314	      0.84421203	     -1.21419123	     19.72081363	     -8.88005218	    -34.50049862	     -9.11263286	     -0.66412155	     13.68990408	      0.00000000	     21.02989245	    -16.88611220	    -32.32462739	    -10.45202511	      0.13085211	     16.45476843	      0.00000000	      5.53923369	      2.05649709	     -0.83394362
      0.06500000	     15.46092006	      3.12784570	   -179.66836806	      0.21405982	      0.84423265	     -1.21417572	     19.72108754	     -8.87811257	    -34.50713935	     -9.11278952	     -0.65934798	     13.68699272	      0.00000000	     21.02657969	    -16.88792996	    -32.32295370	    -10.45078288	      0.13408587	     16.45515523	      0.00000000	      5.53881330	      2.06028257	     -0.82672480
      0.07000000	     15.46363289	      3.14210658	   -179.67859063	      0.21401064	      0.84426788	     -1.21414174	     19.73261632	     -8.86865612	    -34.52099188	     -9.14004156	     -0.66409263	     13.67887024	      0.00000000	     21.01665271	    -16.89791708	    -32.33349562	    -10.42875411	      0.13974271	     16.44722874	      0.00000000	      5.54160287	      2.08389011	     -0.81767671
      0.07500000	     15.46542338	      3.13951160	   -179.68244214	      0.21395633	      0.84426347	     -1.21413954	     19.73054470	     -8.86988708	    -34.52376757	     -9.13862029	     -0.66461807	     13.67807615	      0.00000000	     21.01418837	    -16.89860151	    -32.33302455	    -10.43592918	      0.13732729	     16.44618309	      0.00000000	      5.54561446	      2.08438523	     -0.81799458
      0.08000000	     15.46731728	      3.13999429	   -179.68256132	      0.21393511	      0.84423652	     -1.21413890	     19.72993346	     -8.87105495	    -34.52370429	     -9.13791572	     -0.66472344	     13.67820579	      0.00000000	     21.01366245	    -16.89866989	    -32.33293396	    -10.43671654	      0.13720658	     16.44610482	      0.00000000	      5.54528538	      2.08434404	     -0.81778370
      0.08500000	     15.47756813	      3.12434791	   -179.68227041	      0.21391194	      0.84422088	     -1.21412590	     19.72872488	     -8.88219268	    -34.51595386	     -9.11157223	     -0.67643764	     13.69091849	      0.00000000	     21.02757488	    -16.88358184	    -32.32401756	    -10.45674928	      0.14602804	     16.44941009	      0.00000000	      5.55803713	      2.07094112	     -0.81625151
      0.09000000	     15.47994736	      3.12333827	   -179.68407360	      0.21384991	      0.84422529	     -1.21408793	     19.72936050	     -8.88495586	    -34.51721525	     -9.11736700	     -0.67989593	     13.68998895	      0.00000000	     21.02498740	    -16.88085895	    -32.32467999	    -10.45791473	      0.14487855	     16.44901736	      0.00000000	      5.56289874	      2.07906357	     -0.81510316
      0.09500000	     15.49028031	      3.12362702	   -179.69745302	      0.21379922	      0.84422298	     -1.21407819	     19.74883782	     -8.88816964	    -34.53055065	     -9.13953313	     -0.68067711	     13.68787618	      0.00000000	     21.01926304	    -16.87855717	    -32.33109433	    -10.43569277	      0.15284485	     16.44640340	      0.00000000	      5.57061368	      2.08157457	     -0.80260589
      0.10000000	     15.49268552	      3.12498008	   -179.69748841	      0.21375064	      0.84423130	     -1.21405917	     19.74826102	     -8.88838896	    -34.53066648	     -9.13969739	     -0.68043881	     13.68785832	      0.00000000	     21.01862852	    -16.87849666	    -32.33123590	    -10.43588078	      0.15275689	     16.44624924	      0.00000000	      5.57006215	      2.08087670	     -0.80239777
      0.10500000	     15.49567032	      3.12779298	   -179.69089899	      0.21371631	      0.84423577	     -1.21410104	     19.74612676	     -8.88532533	    -34.52894035	     -9.13678306	     -0.67859339	     13.69023859	      0.00000000	     21.02108040	    -16.88325249	    -32.33249655	    -10.43373315	      0.15347259	     16.44468865	      0.00000000	      5.57060322	      2.06640091	     -0.80133164
      0.11000000	     15.49955425	      3.11232053	   -179.67693966	      0.21367086	      0.84421844	     -1.21412543	     19.72843303	     -8.89399346	    -34.51637940	     -9.10193685	     -0.67278423	     13.70630976	      0.00000000	     21.03555520	    -16.87164553	    -32.32518003	    -10.46164027	      0.16647106	     16.44490023	      0.00000000	      5.57593376	      2.03986750	     -0.81156769
      0.11500000	     15.50234548	      3.11061362	   -179.67997342	      0.21361897	      0.84420562	     -1.21413640	     19.72898951	     -8.89439583	    -34.51769145	     -9.10290447	     -0.67216561	     13.70611330	      0.00000000	     21.03223269	    -16.87010085	    -32.32447324	    -10.46107068	      0.16862311	     16.44504920	      0.00000000	      5.57954628	      2.04104698	     -0.81569016
      0.12000000	     15.51306165	      3.11311443	   -179.69831953	      0.21357225	      0.84420206	     -1.21407953	     19.74635399	     -8.89410102	    -34.52348267	     -9.11326213	     -0.66897545	     13.70656838	      0.00000000	     21.02356045	    -16.86568069	    -32.32561861	    -10.43800965	      0.18311675	     16.44234431	      0.00000000	      5.58831082	      2.05857248	     -0.80388107
      0.12500000	     15.51608819	      3.11233190	   -179.70730413	      0.21348028	      0.84421486	     -1.21399575	     19.74674880	     -8.89791795	    -34.52687834	     -9.11833190	     -0.66768422	     13.70506581	      0.00000000	     21.01646013	    -16.86199606	    -32.32724135	    -10.44077450	      0.17941303	     16.44006541	      0.00000000	      5.59868766	      2.07529335	     -0.79799460
